<svg width="250" height="48" viewBox="0 0 250 48" fill="none" xmlns="http://www.w3.org/2000/svg" style="max-height: 37px; display: inline-block; vertical-align: middle; max-width: 180px;">
    <path d="M86.32 12.6H81.2L75.12 22.552L69.04 12.6H63.92V35H69.04V21.976L74.832 31.48H75.408L81.2 21.976V35H86.32V12.6ZM100.09 19L97.082 28.792L93.53 19H88.25L94.618 34.264C93.914 36.216 92.858 36.92 90.618 36.92V41.4C95.098 41.624 97.946 39.608 99.738 34.52L105.21 19H100.09Z" fill="#0083DA"></path>
    <path d="M114.979 35.448C119.843 35.448 123.299 32.888 123.299 28.568C123.299 23.832 119.491 22.648 116.099 21.624C112.611 20.568 112.067 19.864 112.067 18.84C112.067 17.944 112.867 17.144 114.467 17.144C116.515 17.144 117.571 18.136 118.339 19.736L122.659 17.208C121.027 13.912 118.147 12.152 114.467 12.152C110.595 12.152 106.947 14.648 106.947 18.968C106.947 23.256 110.211 24.856 113.539 25.784C116.899 26.712 118.179 27.256 118.179 28.632C118.179 29.496 117.571 30.456 115.139 30.456C112.611 30.456 111.235 29.208 110.435 27.352L106.019 29.912C107.267 33.208 110.275 35.448 114.979 35.448ZM130.454 28.92H141.814C141.942 28.312 142.006 27.672 142.006 27C142.006 22.168 138.55 18.552 133.878 18.552C128.822 18.552 125.366 22.232 125.366 27C125.366 31.768 128.758 35.448 134.23 35.448C137.27 35.448 139.638 34.328 141.206 32.152L137.366 29.944C136.726 30.648 135.606 31.16 134.294 31.16C132.534 31.16 131.062 30.584 130.454 28.92ZM130.358 25.336C130.806 23.704 132.022 22.808 133.846 22.808C135.286 22.808 136.726 23.48 137.238 25.336H130.358ZM149.529 21.848V19H144.729V35H149.529V27.768C149.529 24.6 152.345 23.8 154.329 24.12V18.68C152.313 18.68 150.169 19.704 149.529 21.848ZM158.973 17.592C160.541 17.592 161.853 16.28 161.853 14.712C161.853 13.144 160.541 11.832 158.973 11.832C157.405 11.832 156.093 13.144 156.093 14.712C156.093 16.28 157.405 17.592 158.973 17.592ZM156.573 35H161.373V19H156.573V35ZM176.501 19V20.504C175.445 19.288 173.877 18.552 171.733 18.552C167.541 18.552 164.085 22.232 164.085 27C164.085 31.768 167.541 35.448 171.733 35.448C173.877 35.448 175.445 34.712 176.501 33.496V35H181.301V19H176.501ZM172.693 30.904C170.485 30.904 168.885 29.4 168.885 27C168.885 24.6 170.485 23.096 172.693 23.096C174.901 23.096 176.501 24.6 176.501 27C176.501 29.4 174.901 30.904 172.693 30.904ZM187.543 35.448C189.207 35.448 190.583 34.072 190.583 32.408C190.583 30.744 189.207 29.368 187.543 29.368C185.879 29.368 184.503 30.744 184.503 32.408C184.503 34.072 185.879 35.448 187.543 35.448ZM206.431 12.6V24.76L197.791 12.6H193.951V35H199.071V22.84L207.711 35H211.551V12.6H206.431ZM220.509 30.072V26.104H228.509V21.24H220.509V17.528H229.309V12.6H215.389V35H229.469V30.072H220.509ZM247.398 12.6H230.758V17.528H236.518V35H241.638V17.528H247.398V12.6Z" fill="#F0EEEE"></path>
    <path d="M23.316 1.42499C10.492 1.42499 0 11.658 0 24.482C0 37.306 10.492 47.669 23.316 47.669C36.14 47.669 46.632 37.306 46.632 24.482C46.632 11.658 36.269 1.42499 23.316 1.42499ZM21.503 40.544C12.306 40.544 4.793 33.161 4.793 24.093C4.793 15.026 12.306 7.77199 21.503 7.77199C30.7 7.77199 38.213 15.155 38.213 24.223C38.212 33.29 30.699 40.544 21.503 40.544Z" fill="#084B78"></path><path d="M23.316 0C10.492 0 0 10.363 0 23.057C0 35.751 10.492 46.114 23.316 46.114C36.269 46.114 46.632 35.751 46.632 23.057C46.762 10.363 36.269 0 23.316 0ZM21.503 39.119C12.306 39.119 4.793 31.736 4.793 22.798C4.793 13.86 12.306 6.347 21.503 6.347C30.7 6.347 38.213 13.601 38.213 22.539C38.212 31.606 30.829 39.119 21.503 39.119Z" fill="#0083DA"></path>
    <path opacity="0.1" d="M10.881 6.21697V40.025C10.881 40.025 10.751 41.191 11.917 41.838C12.306 42.097 12.953 42.227 13.86 41.708C17.228 39.895 41.71 24.35 41.71 24.35C41.71 24.35 44.301 22.407 41.58 20.723C38.212 18.65 14.119 4.01298 14.119 4.01298C14.119 4.01298 12.824 3.36498 11.658 4.01298C10.751 4.66298 10.881 6.21697 10.881 6.21697Z" fill="#171717"></path>
    <path d="M12.824 7.38297V38.86C12.824 38.86 12.694 40.026 13.731 40.544C14.12 40.674 14.638 40.933 15.415 40.414C18.265 38.73 39.767 24.222 39.767 24.222C39.767 24.222 42.099 22.409 39.637 20.854C36.787 18.911 15.673 5.30997 15.673 5.30997C15.673 5.30997 14.507 4.66197 13.471 5.30997C12.824 5.82897 12.824 7.38297 12.824 7.38297Z" fill="white"></path>
</svg>