<?xml version="1.0" encoding="utf-8"?>
<!-- Generator: Adobe Illustrator 19.0.0, SVG Export Plug-In . SVG Version: 6.00 Build 0)  -->
<svg version="1.1" id="Layer_1" xmlns="http://www.w3.org/2000/svg" xmlns:xlink="http://www.w3.org/1999/xlink" x="0px" y="0px"
	 viewBox="0 0 37.7 50" style="enable-background:new 0 0 37.7 50;" xml:space="preserve">
<style type="text/css">
	.st0{fill:#ECA03C;}
	.st1{fill:#EC8A23;}
</style>
<g id="XMLID_1_">
	<path id="XMLID_2_" class="st0" d="M0,1.9v45.7c0,0,0.1,4,3.6,1.7c4.2-2.7,33-22.5,33-22.5s2.9-2.1-0.6-4.6
		c-3.5-2.4-33-21.9-33-21.9S0-1.1,0,1.9z"/>
	<path id="XMLID_6_" class="st1" d="M36,22.2c-0.4-0.3-1.2-0.8-2.2-1.5c-7.3,5-26.9,18.4-30.3,20.6c-2.4,1.5-3.2,0.3-3.5-0.8v7
		c0,0,0.1,4,3.6,1.7c4.2-2.7,33-22.5,33-22.5S39.5,24.6,36,22.2z"/>
</g>
</svg>
